# Blender 4.1.1
# www.blender.org
mtllib enemy.mtl
o 立方体
v -1.000000 -1.000000 1.000000
v -1.000000 1.000000 1.000000
v -1.000000 -1.000000 -1.000000
v -1.000000 1.000000 -1.000000
v 1.000000 -1.000000 1.000000
v 1.000000 1.000000 1.000000
v 1.000000 -1.000000 -1.000000
v 1.000000 1.000000 -1.000000
v -1.000000 0.000000 -0.221826
v -1.000000 0.000000 -1.000000
v 1.000000 0.000000 -1.000000
v 1.000000 0.000000 -0.221826
v -1.000000 0.197464 1.000000
v -1.000000 0.184868 -1.000000
v 1.000000 0.184868 -1.000000
v 1.000000 0.197464 1.000000
v -1.000000 -0.500000 -1.000000
v 1.000000 -0.500000 -1.000000
v 1.000000 -0.987712 1.000000
v -1.000000 -0.987712 1.000000
vn -1.0000 -0.0000 -0.0000
vn -0.0000 -0.0000 -1.0000
vn 1.0000 -0.0000 -0.0000
vn -0.0000 -0.0000 1.0000
vn -0.0000 -1.0000 -0.0000
vn -0.0000 1.0000 -0.0000
vn -0.0000 0.7777 0.6287
vn -0.0000 -0.9872 0.1595
vt 0.562500 0.000000
vt 0.625000 0.000000
vt 0.625000 0.250000
vt 0.562500 0.250000
vt 0.625000 0.500000
vt 0.562500 0.500000
vt 0.625000 0.750000
vt 0.562500 0.750000
vt 0.625000 1.000000
vt 0.562500 1.000000
vt 0.125000 0.500000
vt 0.375000 0.500000
vt 0.375000 0.750000
vt 0.125000 0.750000
vt 0.875000 0.500000
vt 0.875000 0.750000
vt 0.437500 0.750000
vt 0.500000 0.750000
vt 0.500000 1.000000
vt 0.437500 1.000000
vt 0.437500 0.500000
vt 0.500000 0.500000
vt 0.437500 0.250000
vt 0.500000 0.250000
vt 0.437500 0.000000
vt 0.500000 0.000000
vt 0.375000 0.000000
vt 0.375000 0.250000
vt 0.375000 1.000000
s 0
usemtl マテリアル.002
f 13/1/1 2/2/1 4/3/1 14/4/1
f 14/4/2 4/3/2 8/5/2 15/6/2
f 15/6/3 8/5/3 6/7/3 16/8/3
f 16/8/4 6/7/4 2/9/4 13/10/4
f 3/11/5 7/12/5 5/13/5 1/14/5
f 8/5/6 4/15/6 2/16/6 6/7/6
f 19/17/7 12/18/7 9/19/7 20/20/7
f 18/21/3 11/22/3 12/18/3 19/17/3
f 17/23/2 10/24/2 11/22/2 18/21/2
f 20/25/1 9/26/1 10/24/1 17/23/1
f 12/18/8 16/8/8 13/10/8 9/19/8
f 11/22/3 15/6/3 16/8/3 12/18/3
f 10/24/2 14/4/2 15/6/2 11/22/2
f 9/26/1 13/1/1 14/4/1 10/24/1
f 1/27/1 20/25/1 17/23/1 3/28/1
f 3/28/2 17/23/2 18/21/2 7/12/2
f 7/12/3 18/21/3 19/17/3 5/13/3
f 5/13/4 19/17/4 20/20/4 1/29/4
