# Blender 4.1.1
# www.blender.org
mtllib TitleMoji.mtl
o オブジェクト
v -6.506640 0.090000 0.000000
v -5.932080 0.090000 0.651000
v -5.932080 0.090000 0.000000
v -5.816160 0.090000 0.000000
v -5.816160 0.090000 0.845680
v -5.914440 0.090000 0.845680
v -6.496560 0.090000 0.190960
v -6.496560 0.090000 0.845680
v -6.612480 0.090000 0.845680
v -6.612480 0.090000 0.000000
v -5.596920 0.090000 0.000000
v -5.482260 0.090000 0.249240
v -5.116860 0.090000 0.249240
v -5.008500 0.090000 0.000000
v -4.882500 0.090000 0.000000
v -5.251680 0.090000 0.850640
v -5.338620 0.090000 0.850640
v -5.722920 0.090000 0.000000
v -5.431860 0.090000 0.358360
v -5.293260 0.090000 0.664640
v -5.164740 0.090000 0.358360
v -4.668300 0.090000 0.000000
v -4.668300 0.090000 0.658440
v -4.665780 0.090000 0.658440
v -4.401180 0.090000 0.331080
v -4.381020 0.090000 0.331080
v -4.116420 0.090000 0.658440
v -4.113900 0.090000 0.658440
v -4.113900 0.090000 0.000000
v -3.990420 0.090000 0.000000
v -3.990420 0.090000 0.845680
v -4.106340 0.090000 0.845680
v -4.391100 0.090000 0.498480
v -4.677120 0.090000 0.845680
v -4.791780 0.090000 0.845680
v -4.791780 0.090000 0.000000
v -3.679200 0.090000 0.000000
v -3.679200 0.090000 0.845680
v -3.802680 0.090000 0.845680
v -3.802680 0.090000 0.000000
v -3.526740 0.090000 0.422840
v -3.061800 0.090000 -0.011160
v -2.603160 0.090000 0.422840
v -3.064320 0.090000 0.856840
v -3.399480 0.090000 0.422840
v -3.064320 0.090000 0.745240
v -2.730420 0.090000 0.422840
v -3.064320 0.090000 0.100440
v -2.134440 0.090000 -0.011160
v -1.677060 0.090000 0.417880
v -2.138220 0.090000 0.856840
v -2.444400 0.090000 0.784920
v -2.444400 0.090000 0.662160
v -2.135700 0.090000 0.745240
v -1.804320 0.090000 0.421600
v -2.152080 0.090000 0.100440
v -2.338560 0.090000 0.133920
v -2.338560 0.090000 0.307520
v -2.173500 0.090000 0.307520
v -2.173500 0.090000 0.416640
v -2.462040 0.090000 0.416640
v -2.462040 0.090000 0.058280
v -1.557360 0.090000 0.422840
v -1.092420 0.090000 -0.011160
v -0.633780 0.090000 0.422840
v -1.094940 0.090000 0.856840
v -1.430100 0.090000 0.422840
v -1.094940 0.090000 0.745240
v -0.761040 0.090000 0.422840
v -1.094940 0.090000 0.100440
v -0.301140 0.090000 0.747720
v -0.165060 0.090000 0.647280
v -0.536760 0.090000 0.218240
v -0.296100 0.090000 -0.011160
v -0.055440 0.090000 0.066960
v -0.055440 0.090000 0.220720
v -0.282240 0.090000 0.097960
v -0.422100 0.090000 0.204600
v -0.050400 0.090000 0.631160
v -0.311220 0.090000 0.856840
v -0.502740 0.090000 0.797320
v -0.502740 0.090000 0.659680
v -6.506640 -0.090000 0.000000
v -5.932080 -0.090000 0.651000
v -5.932080 -0.090000 0.000000
v -5.816160 -0.090000 0.000000
v -5.816160 -0.090000 0.845680
v -5.914440 -0.090000 0.845680
v -6.496560 -0.090000 0.190960
v -6.496560 -0.090000 0.845680
v -6.612480 -0.090000 0.845680
v -6.612480 -0.090000 0.000000
v -5.596920 -0.090000 0.000000
v -5.482260 -0.090000 0.249240
v -5.116860 -0.090000 0.249240
v -5.008500 -0.090000 0.000000
v -4.882500 -0.090000 0.000000
v -5.251680 -0.090000 0.850640
v -5.338620 -0.090000 0.850640
v -5.722920 -0.090000 0.000000
v -5.431860 -0.090000 0.358360
v -5.293260 -0.090000 0.664640
v -5.164740 -0.090000 0.358360
v -4.668300 -0.090000 0.000000
v -4.668300 -0.090000 0.658440
v -4.665780 -0.090000 0.658440
v -4.401180 -0.090000 0.331080
v -4.381020 -0.090000 0.331080
v -4.116420 -0.090000 0.658440
v -4.113900 -0.090000 0.658440
v -4.113900 -0.090000 0.000000
v -3.990420 -0.090000 0.000000
v -3.990420 -0.090000 0.845680
v -4.106340 -0.090000 0.845680
v -4.391100 -0.090000 0.498480
v -4.677120 -0.090000 0.845680
v -4.791780 -0.090000 0.845680
v -4.791780 -0.090000 0.000000
v -3.679200 -0.090000 0.000000
v -3.679200 -0.090000 0.845680
v -3.802680 -0.090000 0.845680
v -3.802680 -0.090000 0.000000
v -3.526740 -0.090000 0.422840
v -3.061800 -0.090000 -0.011160
v -2.603160 -0.090000 0.422840
v -3.064320 -0.090000 0.856840
v -3.399480 -0.090000 0.422840
v -3.064320 -0.090000 0.745240
v -2.730420 -0.090000 0.422840
v -3.064320 -0.090000 0.100440
v -2.134440 -0.090000 -0.011160
v -1.677060 -0.090000 0.417880
v -2.138220 -0.090000 0.856840
v -2.444400 -0.090000 0.784920
v -2.444400 -0.090000 0.662160
v -2.135700 -0.090000 0.745240
v -1.804320 -0.090000 0.421600
v -2.152080 -0.090000 0.100440
v -2.338560 -0.090000 0.133920
v -2.338560 -0.090000 0.307520
v -2.173500 -0.090000 0.307520
v -2.173500 -0.090000 0.416640
v -2.462040 -0.090000 0.416640
v -2.462040 -0.090000 0.058280
v -1.557360 -0.090000 0.422840
v -1.092420 -0.090000 -0.011160
v -0.633780 -0.090000 0.422840
v -1.094940 -0.090000 0.856840
v -1.430100 -0.090000 0.422840
v -1.094940 -0.090000 0.745240
v -0.761040 -0.090000 0.422840
v -1.094940 -0.090000 0.100440
v -0.301140 -0.090000 0.747720
v -0.165060 -0.090000 0.647280
v -0.536760 -0.090000 0.218240
v -0.296100 -0.090000 -0.011160
v -0.055440 -0.090000 0.066960
v -0.055440 -0.090000 0.220720
v -0.282240 -0.090000 0.097960
v -0.422100 -0.090000 0.204600
v -0.050400 -0.090000 0.631160
v -0.311220 -0.090000 0.856840
v -0.502740 -0.090000 0.797320
v -0.502740 -0.090000 0.659680
v -0.301140 -0.090000 0.747720
v -0.301140 0.090000 0.747720
v -0.165060 -0.090000 0.647280
v -0.165060 0.090000 0.647280
v -0.536760 -0.090000 0.218240
v -0.536760 0.090000 0.218240
v -0.296100 -0.090000 -0.011160
v -0.296100 0.090000 -0.011160
v -0.055440 -0.090000 0.066960
v -0.055440 0.090000 0.066960
v -0.055440 -0.090000 0.220720
v -0.055440 0.090000 0.220720
v -0.282240 -0.090000 0.097960
v -0.282240 0.090000 0.097960
v -0.422100 -0.090000 0.204600
v -0.422100 0.090000 0.204600
v -0.050400 -0.090000 0.631160
v -0.050400 0.090000 0.631160
v -0.311220 -0.090000 0.856840
v -0.311220 0.090000 0.856840
v -0.502740 -0.090000 0.797320
v -0.502740 0.090000 0.797320
v -0.502740 -0.090000 0.659680
v -0.502740 0.090000 0.659680
v -1.557360 -0.090000 0.422840
v -1.557360 0.090000 0.422840
v -1.092420 -0.090000 -0.011160
v -1.092420 0.090000 -0.011160
v -0.633780 -0.090000 0.422840
v -0.633780 0.090000 0.422840
v -1.094940 -0.090000 0.856840
v -1.094940 0.090000 0.856840
v -1.430100 -0.090000 0.422840
v -1.430100 0.090000 0.422840
v -1.094940 -0.090000 0.745240
v -1.094940 0.090000 0.745240
v -0.761040 -0.090000 0.422840
v -0.761040 0.090000 0.422840
v -1.094940 -0.090000 0.100440
v -1.094940 0.090000 0.100440
v -2.134440 -0.090000 -0.011160
v -2.134440 0.090000 -0.011160
v -1.677060 -0.090000 0.417880
v -1.677060 0.090000 0.417880
v -2.138220 -0.090000 0.856840
v -2.138220 0.090000 0.856840
v -2.444400 -0.090000 0.784920
v -2.444400 0.090000 0.784920
v -2.444400 -0.090000 0.662160
v -2.444400 0.090000 0.662160
v -2.135700 -0.090000 0.745240
v -2.135700 0.090000 0.745240
v -1.804320 -0.090000 0.421600
v -1.804320 0.090000 0.421600
v -2.152080 -0.090000 0.100440
v -2.152080 0.090000 0.100440
v -2.338560 -0.090000 0.133920
v -2.338560 0.090000 0.133920
v -2.338560 -0.090000 0.307520
v -2.338560 0.090000 0.307520
v -2.173500 -0.090000 0.307520
v -2.173500 0.090000 0.307520
v -2.173500 -0.090000 0.416640
v -2.173500 0.090000 0.416640
v -2.462040 -0.090000 0.416640
v -2.462040 0.090000 0.416640
v -2.462040 -0.090000 0.058280
v -2.462040 0.090000 0.058280
v -3.526740 -0.090000 0.422840
v -3.526740 0.090000 0.422840
v -3.061800 -0.090000 -0.011160
v -3.061800 0.090000 -0.011160
v -2.603160 -0.090000 0.422840
v -2.603160 0.090000 0.422840
v -3.064320 -0.090000 0.856840
v -3.064320 0.090000 0.856840
v -3.399480 -0.090000 0.422840
v -3.399480 0.090000 0.422840
v -3.064320 -0.090000 0.745240
v -3.064320 0.090000 0.745240
v -2.730420 -0.090000 0.422840
v -2.730420 0.090000 0.422840
v -3.064320 -0.090000 0.100440
v -3.064320 0.090000 0.100440
v -3.679200 -0.090000 0.000000
v -3.679200 0.090000 0.000000
v -3.679200 -0.090000 0.845680
v -3.679200 0.090000 0.845680
v -3.802680 -0.090000 0.845680
v -3.802680 0.090000 0.845680
v -3.802680 -0.090000 0.000000
v -3.802680 0.090000 0.000000
v -4.668300 -0.090000 0.000000
v -4.668300 0.090000 0.000000
v -4.668300 -0.090000 0.658440
v -4.668300 0.090000 0.658440
v -4.665780 -0.090000 0.658440
v -4.665780 0.090000 0.658440
v -4.401180 -0.090000 0.331080
v -4.401180 0.090000 0.331080
v -4.381020 -0.090000 0.331080
v -4.381020 0.090000 0.331080
v -4.116420 -0.090000 0.658440
v -4.116420 0.090000 0.658440
v -4.113900 -0.090000 0.658440
v -4.113900 0.090000 0.658440
v -4.113900 -0.090000 0.000000
v -4.113900 0.090000 0.000000
v -3.990420 -0.090000 0.000000
v -3.990420 0.090000 0.000000
v -3.990420 -0.090000 0.845680
v -3.990420 0.090000 0.845680
v -4.106340 -0.090000 0.845680
v -4.106340 0.090000 0.845680
v -4.391100 -0.090000 0.498480
v -4.391100 0.090000 0.498480
v -4.677120 -0.090000 0.845680
v -4.677120 0.090000 0.845680
v -4.791780 -0.090000 0.845680
v -4.791780 0.090000 0.845680
v -4.791780 -0.090000 0.000000
v -4.791780 0.090000 0.000000
v -5.596920 -0.090000 0.000000
v -5.596920 0.090000 0.000000
v -5.482260 -0.090000 0.249240
v -5.482260 0.090000 0.249240
v -5.116860 -0.090000 0.249240
v -5.116860 0.090000 0.249240
v -5.008500 -0.090000 0.000000
v -5.008500 0.090000 0.000000
v -4.882500 -0.090000 0.000000
v -4.882500 0.090000 0.000000
v -5.251680 -0.090000 0.850640
v -5.251680 0.090000 0.850640
v -5.338620 -0.090000 0.850640
v -5.338620 0.090000 0.850640
v -5.722920 -0.090000 0.000000
v -5.722920 0.090000 0.000000
v -5.431860 -0.090000 0.358360
v -5.431860 0.090000 0.358360
v -5.293260 -0.090000 0.664640
v -5.293260 0.090000 0.664640
v -5.164740 -0.090000 0.358360
v -5.164740 0.090000 0.358360
v -6.506640 -0.090000 0.000000
v -6.506640 0.090000 0.000000
v -5.932080 -0.090000 0.651000
v -5.932080 0.090000 0.651000
v -5.932080 -0.090000 0.000000
v -5.932080 0.090000 0.000000
v -5.816160 -0.090000 0.000000
v -5.816160 0.090000 0.000000
v -5.816160 -0.090000 0.845680
v -5.816160 0.090000 0.845680
v -5.914440 -0.090000 0.845680
v -5.914440 0.090000 0.845680
v -6.496560 -0.090000 0.190960
v -6.496560 0.090000 0.190960
v -6.496560 -0.090000 0.845680
v -6.496560 0.090000 0.845680
v -6.612480 -0.090000 0.845680
v -6.612480 0.090000 0.845680
v -6.612480 -0.090000 0.000000
v -6.612480 0.090000 0.000000
vn -0.0000 1.0000 -0.0000
vn -0.0000 -1.0000 -0.0000
vn -0.1109 -0.0000 -0.9938
vn -0.9937 -0.0000 -0.1122
vn -0.9988 -0.0000 -0.0484
vn -0.2201 -0.0000 -0.9755
vn 0.8058 -0.0000 -0.5921
vn 0.5029 -0.0000 0.8643
vn 0.0769 -0.0000 0.9970
vn 0.9947 -0.0000 0.1028
vn 0.9974 -0.0000 0.0714
vn 0.2030 -0.0000 0.9792
vn -0.8020 -0.0000 0.5973
vn -0.5390 -0.0000 -0.8423
vn -1.0000 -0.0000 -0.0014
vn 0.0034 -0.0000 -1.0000
vn 1.0000 -0.0000 0.0014
vn 0.0007 -0.0000 1.0000
vn 1.0000 -0.0000 -0.0000
vn -0.0009 -0.0000 -1.0000
vn -1.0000 -0.0000 -0.0000
vn -0.0009 -0.0000 1.0000
vn 0.2672 -0.0000 -0.9636
vn 1.0000 -0.0000 -0.0037
vn 0.2601 -0.0000 0.9656
vn -0.7801 -0.0000 0.6257
vn -0.6006 -0.0000 -0.7996
vn -0.2507 -0.0000 -0.9681
vn -0.9999 -0.0000 0.0142
vn -0.2785 -0.0000 0.9604
vn 0.7629 -0.0000 0.6466
vn 0.7014 -0.0000 -0.7127
vn 0.7014 -0.0000 0.7127
vn -0.7014 -0.0000 0.7127
vn -0.7731 -0.0000 -0.6343
vn -0.7014 -0.0000 -0.7127
vn -0.4288 -0.0000 -0.9034
vn 0.4288 -0.0000 -0.9034
vn -0.4256 -0.0000 0.9049
vn -0.0011 -0.0000 1.0000
vn 0.4247 -0.0000 0.9053
vn 0.5359 -0.0000 -0.8443
vn -0.5446 -0.0000 -0.8387
vn 0.8304 -0.0000 -0.5571
vn 0.5449 -0.0000 0.8385
vn -0.5387 -0.0000 0.8425
vn -0.8345 -0.0000 -0.5510
vn 0.8347 -0.0000 0.5507
vn -0.0135 -0.0000 -0.9999
vn -0.8270 -0.0000 0.5622
vn 0.4094 -0.0000 -0.9124
vn -0.3451 -0.0000 -0.9386
vn -0.4078 -0.0000 0.9131
vn 0.3468 -0.0000 0.9379
vt 0.333333 0.000000
vt 0.555556 0.000000
vt 0.444444 0.000000
vt 0.111111 0.000000
vt 0.666667 0.000000
vt 0.888889 0.000000
vt 0.777778 0.000000
vt 1.000000 0.000000
vt 0.222222 0.000000
vt 0.000000 0.000000
vt 0.400000 0.000000
vt 0.600000 0.000000
vt 0.500000 0.000000
vt 0.900000 0.000000
vt 0.700000 0.000000
vt 0.800000 0.000000
vt 0.200000 0.000000
vt 0.100000 0.000000
vt 0.300000 0.000000
vt 0.571429 0.000000
vt 0.714286 0.000000
vt 0.642857 0.000000
vt 0.428571 0.000000
vt 0.357143 0.000000
vt 0.785714 0.000000
vt 0.928571 0.000000
vt 0.857143 0.000000
vt 0.142857 0.000000
vt 0.071429 0.000000
vt 0.285714 0.000000
vt 0.214286 0.000000
vt 0.076923 0.000000
vt 0.384615 0.000000
vt 0.153846 0.000000
vt 0.230769 0.000000
vt 0.307692 0.000000
vt 0.461538 0.000000
vt 0.538462 0.000000
vt 0.769231 0.000000
vt 0.923077 0.000000
vt 0.846154 0.000000
vt 0.692308 0.000000
vt 0.615385 0.000000
vt 0.727273 0.000000
vt 0.818182 0.000000
vt 0.909091 0.000000
vt 0.090909 0.000000
vt 0.181818 0.000000
vt 0.636364 0.000000
vt 0.363636 0.000000
vt 0.545455 0.000000
vt 0.454545 0.000000
vt 0.272727 0.000000
vt 0.000000 1.000000
vt 0.083333 1.000000
vt 0.083333 0.000000
vt 0.166667 1.000000
vt 0.166667 0.000000
vt 0.250000 1.000000
vt 0.250000 0.000000
vt 0.333333 1.000000
vt 0.416667 1.000000
vt 0.416667 0.000000
vt 0.500000 1.000000
vt 0.583333 1.000000
vt 0.583333 0.000000
vt 0.666667 1.000000
vt 0.750000 1.000000
vt 0.750000 0.000000
vt 0.833333 1.000000
vt 0.833333 0.000000
vt 0.916667 1.000000
vt 0.916667 0.000000
vt 1.000000 1.000000
vt 0.071429 1.000000
vt 0.142857 1.000000
vt 0.214286 1.000000
vt 0.285714 1.000000
vt 0.357143 1.000000
vt 0.428571 1.000000
vt 0.571429 1.000000
vt 0.642857 1.000000
vt 0.714286 1.000000
vt 0.785714 1.000000
vt 0.857143 1.000000
vt 0.928571 1.000000
vt 0.066667 1.000000
vt 0.066667 0.000000
vt 0.133333 1.000000
vt 0.133333 0.000000
vt 0.200000 1.000000
vt 0.266667 1.000000
vt 0.266667 0.000000
vt 0.400000 1.000000
vt 0.466667 1.000000
vt 0.466667 0.000000
vt 0.533333 1.000000
vt 0.533333 0.000000
vt 0.600000 1.000000
vt 0.733333 1.000000
vt 0.733333 0.000000
vt 0.800000 1.000000
vt 0.866667 1.000000
vt 0.866667 0.000000
vt 0.933333 1.000000
vt 0.933333 0.000000
vt 0.125000 1.000000
vt 0.125000 0.000000
vt 0.375000 1.000000
vt 0.375000 0.000000
vt 0.625000 1.000000
vt 0.625000 0.000000
vt 0.875000 1.000000
vt 0.875000 0.000000
vt 0.100000 1.000000
vt 0.300000 1.000000
vt 0.700000 1.000000
vt 0.900000 1.000000
s 0
usemtl マテリアル.001
f 4/1/1 6/2/1 5/3/1
f 4/1/1 2/4/1 6/2/1
f 2/4/1 7/5/1 6/2/1
f 7/5/1 9/6/1 8/7/1
f 7/5/1 10/8/1 9/6/1
f 4/1/1 3/9/1 2/4/1
f 1/10/1 7/5/1 2/4/1
f 1/10/1 10/8/1 7/5/1
f 15/11/1 17/12/1 16/13/1
f 15/11/1 20/14/1 17/12/1
f 20/14/1 18/15/1 17/12/1
f 15/11/1 21/8/1 20/14/1
f 19/16/1 18/15/1 20/14/1
f 15/11/1 13/17/1 21/8/1
f 13/17/1 19/16/1 21/8/1
f 13/17/1 12/18/1 19/16/1
f 12/18/1 18/15/1 19/16/1
f 15/11/1 14/19/1 13/17/1
f 11/10/1 18/15/1 12/18/1
f 30/20/1 32/21/1 31/22/1
f 30/20/1 28/23/1 32/21/1
f 28/23/1 27/24/1 32/21/1
f 27/24/1 33/25/1 32/21/1
f 33/25/1 35/26/1 34/27/1
f 33/25/1 24/28/1 35/26/1
f 24/28/1 23/29/1 35/26/1
f 23/29/1 36/8/1 35/26/1
f 30/20/1 29/13/1 28/23/1
f 26/30/1 33/25/1 27/24/1
f 33/25/1 25/31/1 24/28/1
f 22/10/1 36/8/1 23/29/1
f 26/30/1 25/31/1 33/25/1
f 37/10/1 39/5/1 38/1/1
f 37/10/1 40/8/1 39/5/1
f 43/30/1 46/21/1 44/23/1
f 46/21/1 41/10/1 44/23/1
f 43/30/1 47/27/1 46/21/1
f 45/20/1 41/10/1 46/21/1
f 42/28/1 47/27/1 43/30/1
f 42/28/1 48/8/1 47/27/1
f 48/8/1 41/10/1 45/20/1
f 48/8/1 42/28/1 41/10/1
f 50/32/1 54/33/1 51/34/1
f 54/33/1 52/35/1 51/34/1
f 54/33/1 53/36/1 52/35/1
f 50/32/1 55/37/1 54/33/1
f 50/32/1 56/38/1 55/37/1
f 49/10/1 56/38/1 50/32/1
f 59/39/1 61/40/1 60/41/1
f 59/39/1 58/42/1 61/40/1
f 58/42/1 62/8/1 61/40/1
f 57/43/1 62/8/1 58/42/1
f 56/38/1 62/8/1 57/43/1
f 49/10/1 62/8/1 56/38/1
f 65/30/1 68/21/1 66/23/1
f 68/21/1 63/10/1 66/23/1
f 65/30/1 69/27/1 68/21/1
f 67/20/1 63/10/1 68/21/1
f 64/28/1 69/27/1 65/30/1
f 64/28/1 70/8/1 69/27/1
f 70/8/1 63/10/1 67/20/1
f 70/8/1 64/28/1 63/10/1
f 79/44/1 71/10/1 80/45/1
f 71/10/1 81/46/1 80/45/1
f 71/10/1 82/8/1 81/46/1
f 79/44/1 72/47/1 71/10/1
f 79/44/1 73/48/1 72/47/1
f 78/49/1 73/48/1 79/44/1
f 75/50/1 77/51/1 76/52/1
f 78/49/1 74/53/1 73/48/1
f 77/51/1 74/53/1 78/49/1
f 75/50/1 74/53/1 77/51/1
f 86/1/2 87/3/2 88/2/2
f 86/1/2 88/2/2 84/4/2
f 84/4/2 88/2/2 89/5/2
f 89/5/2 90/7/2 91/6/2
f 89/5/2 91/6/2 92/8/2
f 86/1/2 84/4/2 85/9/2
f 83/10/2 84/4/2 89/5/2
f 83/10/2 89/5/2 92/8/2
f 97/11/2 98/13/2 99/12/2
f 97/11/2 99/12/2 102/14/2
f 102/14/2 99/12/2 100/15/2
f 97/11/2 102/14/2 103/8/2
f 101/16/2 102/14/2 100/15/2
f 97/11/2 103/8/2 95/17/2
f 95/17/2 103/8/2 101/16/2
f 95/17/2 101/16/2 94/18/2
f 94/18/2 101/16/2 100/15/2
f 97/11/2 95/17/2 96/19/2
f 93/10/2 94/18/2 100/15/2
f 112/20/2 113/22/2 114/21/2
f 112/20/2 114/21/2 110/23/2
f 110/23/2 114/21/2 109/24/2
f 109/24/2 114/21/2 115/25/2
f 115/25/2 116/27/2 117/26/2
f 115/25/2 117/26/2 106/28/2
f 106/28/2 117/26/2 105/29/2
f 105/29/2 117/26/2 118/8/2
f 112/20/2 110/23/2 111/13/2
f 108/30/2 109/24/2 115/25/2
f 115/25/2 106/28/2 107/31/2
f 104/10/2 105/29/2 118/8/2
f 108/30/2 115/25/2 107/31/2
f 119/10/2 120/1/2 121/5/2
f 119/10/2 121/5/2 122/8/2
f 125/30/2 126/23/2 128/21/2
f 128/21/2 126/23/2 123/10/2
f 125/30/2 128/21/2 129/27/2
f 127/20/2 128/21/2 123/10/2
f 124/28/2 125/30/2 129/27/2
f 124/28/2 129/27/2 130/8/2
f 130/8/2 127/20/2 123/10/2
f 130/8/2 123/10/2 124/28/2
f 132/32/2 133/34/2 136/33/2
f 136/33/2 133/34/2 134/35/2
f 136/33/2 134/35/2 135/36/2
f 132/32/2 136/33/2 137/37/2
f 132/32/2 137/37/2 138/38/2
f 131/10/2 132/32/2 138/38/2
f 141/39/2 142/41/2 143/40/2
f 141/39/2 143/40/2 140/42/2
f 140/42/2 143/40/2 144/8/2
f 139/43/2 140/42/2 144/8/2
f 138/38/2 139/43/2 144/8/2
f 131/10/2 138/38/2 144/8/2
f 147/30/2 148/23/2 150/21/2
f 150/21/2 148/23/2 145/10/2
f 147/30/2 150/21/2 151/27/2
f 149/20/2 150/21/2 145/10/2
f 146/28/2 147/30/2 151/27/2
f 146/28/2 151/27/2 152/8/2
f 152/8/2 149/20/2 145/10/2
f 152/8/2 145/10/2 146/28/2
f 161/44/2 162/45/2 153/10/2
f 153/10/2 162/45/2 163/46/2
f 153/10/2 163/46/2 164/8/2
f 161/44/2 153/10/2 154/47/2
f 161/44/2 154/47/2 155/48/2
f 160/49/2 161/44/2 155/48/2
f 157/50/2 158/52/2 159/51/2
f 160/49/2 155/48/2 156/53/2
f 159/51/2 160/49/2 156/53/2
f 157/50/2 159/51/2 156/53/2
s 1
f 166/54/3 168/55/4 167/56/4 165/10/3
f 168/55/4 170/57/5 169/58/5 167/56/4
f 170/57/5 172/59/6 171/60/6 169/58/5
f 172/59/6 174/61/7 173/1/7 171/60/6
f 174/61/7 176/62/8 175/63/8 173/1/7
f 176/62/8 178/64/9 177/13/9 175/63/8
f 178/64/9 180/65/10 179/66/10 177/13/9
f 180/65/10 182/67/11 181/5/11 179/66/10
f 182/67/11 184/68/12 183/69/12 181/5/11
f 184/68/12 186/70/13 185/71/13 183/69/12
f 186/70/13 188/72/14 187/73/14 185/71/13
f 188/72/14 166/74/3 165/8/3 187/73/14
f 190/54/15 192/59/16 191/60/16 189/10/15
f 192/59/16 194/64/17 193/13/17 191/60/16
f 194/64/17 196/68/18 195/69/18 193/13/17
f 196/68/18 190/74/15 189/8/15 195/69/18
f 198/54/19 200/59/20 199/60/20 197/10/19
f 200/59/20 202/64/21 201/13/21 199/60/20
f 202/64/21 204/68/22 203/69/22 201/13/21
f 204/68/22 198/74/19 197/8/19 203/69/22
f 206/54/23 208/75/24 207/29/24 205/10/23
f 208/75/24 210/76/25 209/28/25 207/29/24
f 210/76/25 212/77/26 211/31/26 209/28/25
f 212/77/26 214/78/27 213/30/27 211/31/26
f 214/78/27 216/79/28 215/24/28 213/30/27
f 216/79/28 218/80/29 217/23/29 215/24/28
f 218/80/29 220/64/30 219/13/30 217/23/29
f 220/64/30 222/81/31 221/20/31 219/13/30
f 222/81/31 224/82/32 223/22/32 221/20/31
f 224/82/32 226/83/32 225/21/32 223/22/32
f 226/83/32 228/84/33 227/25/33 225/21/32
f 228/84/33 230/85/34 229/27/34 227/25/33
f 230/85/34 232/86/35 231/26/35 229/27/34
f 232/86/35 206/74/23 205/8/23 231/26/35
f 234/54/15 236/59/16 235/60/16 233/10/15
f 236/59/16 238/64/17 237/13/17 235/60/16
f 238/64/17 240/68/18 239/69/18 237/13/17
f 240/68/18 234/74/15 233/8/15 239/69/18
f 242/54/19 244/59/20 243/60/20 241/10/19
f 244/59/20 246/64/21 245/13/21 243/60/20
f 246/64/21 248/68/22 247/69/22 245/13/21
f 248/68/22 242/74/19 241/8/19 247/69/22
f 250/54/32 252/59/33 251/60/33 249/10/32
f 252/59/33 254/64/34 253/13/34 251/60/33
f 254/64/34 256/68/36 255/69/36 253/13/34
f 256/68/36 250/74/32 249/8/32 255/69/36
f 258/54/32 260/87/32 259/88/32 257/10/32
f 260/87/32 262/89/37 261/90/37 259/88/32
f 262/89/37 264/91/37 263/17/37 261/90/37
f 264/91/37 266/92/38 265/93/38 263/17/37
f 266/92/38 268/61/38 267/1/38 265/93/38
f 268/61/38 270/94/36 269/11/36 267/1/38
f 270/94/36 272/95/36 271/96/36 269/11/36
f 272/95/36 274/97/32 273/98/32 271/96/36
f 274/97/32 276/99/33 275/12/33 273/98/32
f 276/99/33 278/67/39 277/5/39 275/12/33
f 278/67/39 280/100/40 279/101/40 277/5/39
f 280/100/40 282/102/41 281/16/41 279/101/40
f 282/102/41 284/103/34 283/104/34 281/16/41
f 284/103/34 286/105/36 285/106/36 283/104/34
f 286/105/36 258/74/32 257/8/32 285/106/36
f 288/54/42 290/107/42 289/108/42 287/10/42
f 290/107/42 292/59/43 291/60/43 289/108/42
f 292/59/43 294/109/43 293/110/43 291/60/43
f 294/109/43 296/64/44 295/13/44 293/110/43
f 296/64/44 298/111/45 297/112/45 295/13/44
f 298/111/45 300/68/46 299/69/46 297/112/45
f 300/68/46 302/113/47 301/114/47 299/69/46
f 302/113/47 288/74/42 287/8/42 301/114/47
f 304/54/48 306/61/49 305/1/49 303/10/48
f 306/61/49 308/67/50 307/5/50 305/1/49
f 308/67/50 304/74/48 303/8/48 307/5/50
f 310/54/51 312/115/52 311/18/52 309/10/51
f 312/115/52 314/91/36 313/17/36 311/18/52
f 314/91/36 316/116/32 315/19/32 313/17/36
f 316/116/32 318/94/33 317/11/33 315/19/32
f 318/94/33 320/64/53 319/13/53 317/11/33
f 320/64/53 322/99/54 321/12/54 319/13/53
f 322/99/54 324/117/33 323/15/33 321/12/54
f 324/117/33 326/102/34 325/16/34 323/15/33
f 326/102/34 328/118/36 327/14/36 325/16/34
f 328/118/36 310/74/51 309/8/51 327/14/36
